{"title":"Ella Henderson - Mirror Man (2015.Pop)","uid":11770374,"size":85345319,"categoryP":"video","categoryS":"music_videos","magnet":"?xt=urn:btih:1891fcc5ca83b1f7cec4196abc7dd4f8b1305a4c&amp;dn=Ella+Henderson+-+Mirror+Man+%282015.Pop%29&amp;tr=udp%3A%2F%2Ftracker.openbittorrent.com%3A80&amp;tr=udp%3A%2F%2Fopen.demonii.com%3A1337&amp;tr=udp%3A%2F%2Ftracker.coppersurfer.tk%3A6969&amp;tr=udp%3A%2F%2Fexodus.desync.com%3A6969","seeders":1,"leechers":0,"uploader":"MeRaDil","files":1,"time":1427048664,"description":"ELLA HENDERSON - MIRROR MAN\n\n &lt;a href=&quot;\nhttp://gifyu.com/images/MirrorMan.png&quot; rel=&quot;nofollow&quot; target=&quot;_NEW&quot;&gt;\nhttp://gifyu.com/images/MirrorMan.png&lt;/a&gt;\n &lt;a href=&quot;\nhttp://gifyu.com/images/Ella-Henderson.png&quot; rel=&quot;nofollow&quot; target=&quot;_NEW&quot;&gt;\nhttp://gifyu.com/images/Ella-Henderson.png&lt;/a&gt;\n\nGeneral\nElla Henderson - Mirror Man\nFormat                      : MPEG-4\nFormat profile              : Base Media\nCodec ID                    : isom\nFile size                   : 81.4 MiB\nDuration                    : 3mn 42s\nOverall bit rate            : 3 067 Kbps\nMusicVid name               : Mirror Man\nAlbum                       : Chapter One\nPerformer                   : Ella Henderson\nGenre                       : Pop\nContentType                 : Music Video\nRecorded date               : 2015\nCopyright                   : Ella Henderson\nCover                       : Yes\nRating                      : ***\nMake                        : MeRaDil\nArtist url                  : http://www.ellahenderson.co.uk\nRelease                     : UK . march 8 . 2015\nPart_ID                     : Mirror Man\n\nVideo\nID                          : 1\nFormat                      : AVC\nFormat/Info                 : Advanced Video Codec\nFormat profile              : &lt;a class=&quot;__cf_email__&quot; href=&quot;/cdn-cgi/l/email-protection&quot; data-cfemail=&quot;327a5b555a727e061c02&quot;&gt;[email&amp;#160;protected]&lt;/a&gt;&lt;script cf-hash='f9e31' type=&quot;text/javascript&quot;&gt;\n/* &lt;![CDATA[ */!function(){try{var t=&quot;currentScript&quot;in document?document.currentScript:function(){for(var t=document.getElementsByTagName(&quot;script&quot;),e=t.length;e--;)if(t[e].getAttribute(&quot;cf-hash&quot;))return t[e]}();if(t&amp;&amp;t.previousSibling){var e,r,n,i,c=t.previousSibling,a=c.getAttribute(&quot;data-cfemail&quot;);if(a){for(e=&quot;&quot;,r=parseInt(a.substr(0,2),16),n=2;a.length-n;n+=2)i=parseInt(a.substr(n,2),16)^r,e+=String.fromCharCode(i);e=document.createTextNode(e),c.parentNode.replaceChild(e,c)}}}catch(u){}}();/* ]]&gt; */&lt;/script&gt;\nFormat settings, CABAC      : Yes\nFormat settings, ReFrames   : 2 frames\nCodec ID                    : avc1\nCodec ID/Info               : Advanced Video Coding\nDuration                    : 3mn 42s\nBit rate                    : 2 790 Kbps\nWidth                       : 1 920 pixels\nHeight                      : 1 080 pixels\nDisplay aspect ratio        : 16:9\nFrame rate mode             : Variable\nFrame rate                  : 23.976 fps\nMinimum frame rate          : 23.974 fps\nMaximum frame rate          : 23.981 fps\nColor space                 : YUV\nChroma subsampling          : 4:2:0\nBit depth                   : 8 bits\nScan type                   : Progressive\nBits/(Pixel*Frame)          : 0.056\nStream size                 : 74.0 MiB (91%)\n\nAudio\nID                          : 2\nFormat                      : AAC\nFormat/Info                 : Advanced Audio Codec\nFormat profile              : LC\nCodec ID                    : 40\nDuration                    : 3mn 42s\nBit rate mode               : Constant\nBit rate                    : 256 Kbps\nChannel(s)                  : 2 channels\nChannel positions           : Front: L R\nSampling rate               : 44.1 KHz\nCompression mode            : Lossy\nStream size                 : 6.79 MiB (8%)\n &lt;a href=&quot;\nhttps://thepiratebay.se/user/MeRaDil&quot; rel=&quot;nofollow&quot; target=&quot;_NEW&quot;&gt;\nhttps://thepiratebay.se/user/MeRaDil&lt;/a&gt;\n\nElla Henderson * Chapter One * Promo","torrent":{"xt":"urn:btih:1891fcc5ca83b1f7cec4196abc7dd4f8b1305a4c","amp;dn":"Ella+Henderson+-+Mirror+Man+%282015.Pop%29","amp;tr":["udp%3A%2F%2Ftracker.openbittorrent.com%3A80","udp%3A%2F%2Fopen.demonii.com%3A1337","udp%3A%2F%2Ftracker.coppersurfer.tk%3A6969","udp%3A%2F%2Fexodus.desync.com%3A6969"],"infoHash":"1891fcc5ca83b1f7cec4196abc7dd4f8b1305a4c","infoHashBuffer":{"type":"Buffer","data":[24,145,252,197,202,131,177,247,206,196,25,106,188,125,212,248,177,48,90,76]},"announce":[],"urlList":[]}}